<svg xmlns="http://www.w3.org/2000/svg" width="1280" height="800" viewBox="0 0 1280 800">
<title>Scenario-Level Change vs Fallback Baseline</title>
<rect x="0" y="0" width="1280" height="800" fill="#F6F1E8" rx="0" ry="0" />
<text x="80" y="70" font-family="Georgia" font-size="34" font-weight="700" fill="#182026" text-anchor="start">Scenario-Level Change vs Fallback Baseline</text>
<text x="80" y="104" font-family="Arial" font-size="18" font-weight="400" fill="#41505A" text-anchor="start">Positive values indicate improvement over fallback; negative values indicate worse planning performance.</text>
<line x1="80" y1="124" x2="1200" y2="124" stroke="#BDB6A8" stroke-width="2" />
<rect x="780" y="80" width="18" height="18" fill="#C8553D" rx="4" ry="4" />
<text x="808" y="94" font-family="Arial" font-size="16" font-weight="400" fill="#33434D" text-anchor="start">Initial local ML</text>
<rect x="950" y="80" width="18" height="18" fill="#3A7D44" rx="4" ry="4" />
<text x="978" y="94" font-family="Arial" font-size="16" font-weight="400" fill="#33434D" text-anchor="start">Calibrated ML</text>
<line x1="110" y1="660.0" x2="1180" y2="660.0" stroke="#D6D1C7" stroke-width="1" />
<text x="96" y="666.0" font-family="Arial" font-size="15" font-weight="400" fill="#54636C" text-anchor="end">-90%</text>
<line x1="110" y1="611.0" x2="1180" y2="611.0" stroke="#D6D1C7" stroke-width="1" />
<text x="96" y="617.0" font-family="Arial" font-size="15" font-weight="400" fill="#54636C" text-anchor="end">-80%</text>
<line x1="110" y1="562.0" x2="1180" y2="562.0" stroke="#D6D1C7" stroke-width="1" />
<text x="96" y="568.0" font-family="Arial" font-size="15" font-weight="400" fill="#54636C" text-anchor="end">-70%</text>
<line x1="110" y1="513.0" x2="1180" y2="513.0" stroke="#D6D1C7" stroke-width="1" />
<text x="96" y="519.0" font-family="Arial" font-size="15" font-weight="400" fill="#54636C" text-anchor="end">-60%</text>
<line x1="110" y1="464.0" x2="1180" y2="464.0" stroke="#D6D1C7" stroke-width="1" />
<text x="96" y="470.0" font-family="Arial" font-size="15" font-weight="400" fill="#54636C" text-anchor="end">-50%</text>
<line x1="110" y1="415.0" x2="1180" y2="415.0" stroke="#D6D1C7" stroke-width="1" />
<text x="96" y="421.0" font-family="Arial" font-size="15" font-weight="400" fill="#54636C" text-anchor="end">-40%</text>
<line x1="110" y1="366.0" x2="1180" y2="366.0" stroke="#D6D1C7" stroke-width="1" />
<text x="96" y="372.0" font-family="Arial" font-size="15" font-weight="400" fill="#54636C" text-anchor="end">-30%</text>
<line x1="110" y1="317.0" x2="1180" y2="317.0" stroke="#D6D1C7" stroke-width="1" />
<text x="96" y="323.0" font-family="Arial" font-size="15" font-weight="400" fill="#54636C" text-anchor="end">-20%</text>
<line x1="110" y1="268.0" x2="1180" y2="268.0" stroke="#D6D1C7" stroke-width="1" />
<text x="96" y="274.0" font-family="Arial" font-size="15" font-weight="400" fill="#54636C" text-anchor="end">-10%</text>
<line x1="110" y1="219.0" x2="1180" y2="219.0" stroke="#D6D1C7" stroke-width="1" />
<text x="96" y="225.0" font-family="Arial" font-size="15" font-weight="400" fill="#54636C" text-anchor="end">0%</text>
<line x1="110" y1="170.0" x2="1180" y2="170.0" stroke="#D6D1C7" stroke-width="1" />
<text x="96" y="176.0" font-family="Arial" font-size="15" font-weight="400" fill="#54636C" text-anchor="end">10%</text>
<line x1="110" y1="170" x2="110" y2="660" stroke="#7B7F82" stroke-width="2" />
<line x1="110" y1="219.0" x2="1180" y2="219.0" stroke="#7B7F82" stroke-width="2" />
<text x="34" y="410" font-family="Arial" font-size="16" font-weight="400" fill="#54636C" text-anchor="start">Makespan change (%)</text>
<text x="217.0" y="696" font-family="Arial" font-size="16" font-weight="700" fill="#182026" text-anchor="middle">S1</text>
<text x="217.0" y="718" font-family="Arial" font-size="13" font-weight="400" fill="#54636C" text-anchor="middle">Nominal</text>
<rect x="160.50400000000002" y="219.0" width="47.08" height="305.956" fill="#C8553D" rx="6" ry="6" />
<text x="184.044" y="546.956" font-family="Arial" font-size="13" font-weight="400" fill="#33434D" text-anchor="middle">-62.44%</text>
<rect x="226.416" y="216.40300000000002" width="47.08" height="2.59699999999998" fill="#3A7D44" rx="6" ry="6" />
<text x="249.956" y="206.40300000000002" font-family="Arial" font-size="13" font-weight="400" fill="#33434D" text-anchor="middle">+0.53%</text>
<text x="431.0" y="696" font-family="Arial" font-size="16" font-weight="700" fill="#182026" text-anchor="middle">S2</text>
<text x="431.0" y="718" font-family="Arial" font-size="13" font-weight="400" fill="#54636C" text-anchor="middle">Single vehicle</text>
<rect x="374.50399999999996" y="219.0" width="47.08" height="305.956" fill="#C8553D" rx="6" ry="6" />
<text x="398.044" y="546.956" font-family="Arial" font-size="13" font-weight="400" fill="#33434D" text-anchor="middle">-62.44%</text>
<rect x="440.416" y="216.40300000000002" width="47.08" height="2.59699999999998" fill="#3A7D44" rx="6" ry="6" />
<text x="463.956" y="206.40300000000002" font-family="Arial" font-size="13" font-weight="400" fill="#33434D" text-anchor="middle">+0.53%</text>
<text x="645.0" y="696" font-family="Arial" font-size="16" font-weight="700" fill="#182026" text-anchor="middle">S3</text>
<text x="645.0" y="718" font-family="Arial" font-size="13" font-weight="400" fill="#54636C" text-anchor="middle">Tight capacity</text>
<rect x="588.504" y="219.0" width="47.08" height="212.02300000000002" fill="#C8553D" rx="6" ry="6" />
<text x="612.044" y="453.023" font-family="Arial" font-size="13" font-weight="400" fill="#33434D" text-anchor="middle">-43.27%</text>
<rect x="654.416" y="217.38299999999998" width="47.08" height="1.6170000000000186" fill="#3A7D44" rx="6" ry="6" />
<text x="677.956" y="207.38299999999998" font-family="Arial" font-size="13" font-weight="400" fill="#33434D" text-anchor="middle">+0.33%</text>
<text x="859.0" y="696" font-family="Arial" font-size="16" font-weight="700" fill="#182026" text-anchor="middle">S4</text>
<text x="859.0" y="718" font-family="Arial" font-size="13" font-weight="400" fill="#54636C" text-anchor="middle">Shorter workday</text>
<rect x="802.504" y="219.0" width="47.08" height="396.802" fill="#C8553D" rx="6" ry="6" />
<text x="826.044" y="637.802" font-family="Arial" font-size="13" font-weight="400" fill="#33434D" text-anchor="middle">-80.98%</text>
<rect x="868.416" y="215.61900000000003" width="47.08" height="3.380999999999972" fill="#3A7D44" rx="6" ry="6" />
<text x="891.956" y="205.61900000000003" font-family="Arial" font-size="13" font-weight="400" fill="#33434D" text-anchor="middle">+0.69%</text>
<text x="1073.0" y="696" font-family="Arial" font-size="16" font-weight="700" fill="#182026" text-anchor="middle">S5</text>
<text x="1073.0" y="718" font-family="Arial" font-size="13" font-weight="400" fill="#54636C" text-anchor="middle">No-drop</text>
<rect x="1016.5040000000001" y="219.0" width="47.08" height="305.956" fill="#C8553D" rx="6" ry="6" />
<text x="1040.044" y="546.956" font-family="Arial" font-size="13" font-weight="400" fill="#33434D" text-anchor="middle">-62.44%</text>
<rect x="1082.416" y="216.40300000000002" width="47.08" height="2.59699999999998" fill="#3A7D44" rx="6" ry="6" />
<text x="1105.956" y="206.40300000000002" font-family="Arial" font-size="13" font-weight="400" fill="#33434D" text-anchor="middle">+0.53%</text>
</svg>