<svg xmlns="http://www.w3.org/2000/svg" width="1280" height="800" viewBox="0 0 1280 800">
<title>Nominal-Scenario Model Screening</title>
<rect x="0" y="0" width="1280" height="800" fill="#F6F1E8" rx="0" ry="0" />
<text x="80" y="70" font-family="Georgia" font-size="34" font-weight="700" fill="#182026" text-anchor="start">Nominal-Scenario Model Screening</text>
<text x="80" y="104" font-family="Arial" font-size="18" font-weight="400" fill="#41505A" text-anchor="start">Makespan change vs fallback baseline on Dataset 3. Positive values are better; negative values are worse.</text>
<line x1="80" y1="124" x2="1200" y2="124" stroke="#BDB6A8" stroke-width="2" />
<rect x="520" y="80" width="18" height="18" fill="#C8553D" rx="4" ry="4" />
<text x="548" y="94" font-family="Arial" font-size="16" font-weight="400" fill="#33434D" text-anchor="start">Worse than fallback</text>
<rect x="710" y="80" width="18" height="18" fill="#3A7D44" rx="4" ry="4" />
<text x="738" y="94" font-family="Arial" font-size="16" font-weight="400" fill="#33434D" text-anchor="start">Better than fallback</text>
<rect x="900" y="80" width="18" height="18" fill="#1F6E3E" rx="4" ry="4" />
<text x="928" y="94" font-family="Arial" font-size="16" font-weight="400" fill="#33434D" text-anchor="start">Selected calibrated model</text>
<line x1="290.0" y1="170" x2="290.0" y2="700" stroke="#D6D1C7" stroke-width="1" />
<text x="290.0" y="734" font-family="Arial" font-size="15" font-weight="400" fill="#54636C" text-anchor="middle">-70%</text>
<line x1="400.0" y1="170" x2="400.0" y2="700" stroke="#D6D1C7" stroke-width="1" />
<text x="400.0" y="734" font-family="Arial" font-size="15" font-weight="400" fill="#54636C" text-anchor="middle">-60%</text>
<line x1="510.0" y1="170" x2="510.0" y2="700" stroke="#D6D1C7" stroke-width="1" />
<text x="510.0" y="734" font-family="Arial" font-size="15" font-weight="400" fill="#54636C" text-anchor="middle">-50%</text>
<line x1="620.0" y1="170" x2="620.0" y2="700" stroke="#D6D1C7" stroke-width="1" />
<text x="620.0" y="734" font-family="Arial" font-size="15" font-weight="400" fill="#54636C" text-anchor="middle">-40%</text>
<line x1="730.0" y1="170" x2="730.0" y2="700" stroke="#D6D1C7" stroke-width="1" />
<text x="730.0" y="734" font-family="Arial" font-size="15" font-weight="400" fill="#54636C" text-anchor="middle">-30%</text>
<line x1="840.0" y1="170" x2="840.0" y2="700" stroke="#D6D1C7" stroke-width="1" />
<text x="840.0" y="734" font-family="Arial" font-size="15" font-weight="400" fill="#54636C" text-anchor="middle">-20%</text>
<line x1="950.0" y1="170" x2="950.0" y2="700" stroke="#D6D1C7" stroke-width="1" />
<text x="950.0" y="734" font-family="Arial" font-size="15" font-weight="400" fill="#54636C" text-anchor="middle">-10%</text>
<line x1="1060.0" y1="170" x2="1060.0" y2="700" stroke="#D6D1C7" stroke-width="1" />
<text x="1060.0" y="734" font-family="Arial" font-size="15" font-weight="400" fill="#54636C" text-anchor="middle">0%</text>
<line x1="1170.0" y1="170" x2="1170.0" y2="700" stroke="#D6D1C7" stroke-width="1" />
<text x="1170.0" y="734" font-family="Arial" font-size="15" font-weight="400" fill="#54636C" text-anchor="middle">10%</text>
<line x1="1060.0" y1="170" x2="1060.0" y2="700" stroke="#7B7F82" stroke-width="2" />
<text x="730" y="752" font-family="Arial" font-size="16" font-weight="400" fill="#54636C" text-anchor="middle">Makespan change vs fallback baseline (%)</text>
<text x="40" y="201.85714285714286" font-family="Arial" font-size="16" font-weight="700" fill="#182026" text-anchor="start">v20260216105011</text>
<text x="40" y="225.85714285714286" font-family="Arial" font-size="13" font-weight="400" fill="#54636C" text-anchor="start">Existing local artifact</text>
<rect x="850.12" y="186.65714285714287" width="209.88" height="42.4" fill="#C8553D" rx="8" ry="8" />
<text x="838.12" y="213.85714285714286" font-family="Arial" font-size="14" font-weight="400" fill="#33434D" text-anchor="end">-19.08%</text>
<text x="40" y="277.57142857142856" font-family="Arial" font-size="16" font-weight="700" fill="#182026" text-anchor="start">v20260216103502</text>
<text x="40" y="301.57142857142856" font-family="Arial" font-size="13" font-weight="400" fill="#54636C" text-anchor="start">Existing local artifact</text>
<rect x="373.16" y="262.37142857142857" width="686.8399999999999" height="42.4" fill="#C8553D" rx="8" ry="8" />
<text x="361.16" y="289.57142857142856" font-family="Arial" font-size="14" font-weight="400" fill="#33434D" text-anchor="end">-62.44%</text>
<text x="40" y="353.2857142857143" font-family="Arial" font-size="16" font-weight="700" fill="#182026" text-anchor="start">v20260315045420274714</text>
<text x="40" y="377.2857142857143" font-family="Arial" font-size="13" font-weight="400" fill="#54636C" text-anchor="start">Existing local artifact</text>
<rect x="373.16" y="338.0857142857143" width="686.8399999999999" height="42.4" fill="#C8553D" rx="8" ry="8" />
<text x="361.16" y="365.2857142857143" font-family="Arial" font-size="14" font-weight="400" fill="#33434D" text-anchor="end">-62.44%</text>
<text x="40" y="428.99999999999994" font-family="Arial" font-size="16" font-weight="700" fill="#182026" text-anchor="start">v20260315063816867841</text>
<text x="40" y="452.99999999999994" font-family="Arial" font-size="13" font-weight="400" fill="#54636C" text-anchor="start">Retrained candidate</text>
<rect x="944.9399999999999" y="413.79999999999995" width="115.06000000000006" height="42.4" fill="#C8553D" rx="8" ry="8" />
<text x="932.9399999999999" y="440.99999999999994" font-family="Arial" font-size="14" font-weight="400" fill="#33434D" text-anchor="end">-10.46%</text>
<text x="40" y="504.71428571428567" font-family="Arial" font-size="16" font-weight="700" fill="#182026" text-anchor="start">v20260315063819799285</text>
<text x="40" y="528.7142857142857" font-family="Arial" font-size="13" font-weight="400" fill="#54636C" text-anchor="start">Retrained candidate</text>
<rect x="1060.0" y="489.5142857142857" width="5.940000000000055" height="42.4" fill="#3A7D44" rx="8" ry="8" />
<text x="1077.94" y="516.7142857142857" font-family="Arial" font-size="14" font-weight="400" fill="#33434D" text-anchor="start">+0.54%</text>
<text x="40" y="580.4285714285714" font-family="Arial" font-size="16" font-weight="700" fill="#182026" text-anchor="start">v20260315063820648976</text>
<text x="40" y="604.4285714285714" font-family="Arial" font-size="13" font-weight="400" fill="#54636C" text-anchor="start">Retrained candidate</text>
<rect x="988.94" y="565.2285714285714" width="71.05999999999995" height="42.4" fill="#C8553D" rx="8" ry="8" />
<text x="976.94" y="592.4285714285714" font-family="Arial" font-size="14" font-weight="400" fill="#33434D" text-anchor="end">-6.46%</text>
<text x="40" y="656.1428571428571" font-family="Arial" font-size="16" font-weight="700" fill="#182026" text-anchor="start">v20260315063821017757</text>
<text x="40" y="680.1428571428571" font-family="Arial" font-size="13" font-weight="400" fill="#54636C" text-anchor="start">Selected calibrated model</text>
<rect x="1060.0" y="640.9428571428571" width="5.829999999999927" height="42.4" fill="#1F6E3E" rx="8" ry="8" />
<text x="1077.83" y="668.1428571428571" font-family="Arial" font-size="14" font-weight="400" fill="#33434D" text-anchor="start">+0.53%</text>
</svg>