<svg xmlns="http://www.w3.org/2000/svg" width="1440" height="860" viewBox="0 0 1440 860">
<title>Sensitivity Analysis Makespan by Scenario</title>
<rect x="0" y="0" width="1440" height="860" fill="#F6F1E8" rx="0" ry="0" />
<text x="80" y="70" font-family="Georgia" font-size="34" font-weight="700" fill="#182026" text-anchor="start">Sensitivity Analysis Makespan by Scenario</text>
<text x="80" y="104" font-family="Arial" font-size="18" font-weight="400" fill="#41505A" text-anchor="start">Paired fallback-versus-calibrated reruns under one-factor-at-a-time scenario changes.</text>
<line x1="80" y1="124" x2="1360" y2="124" stroke="#BDB6A8" stroke-width="2" />
<rect x="970" y="74" width="18" height="18" fill="#0F4C5C" rx="4" ry="4" />
<text x="998" y="89" font-family="Arial" font-size="16" font-weight="400" fill="#33434D" text-anchor="start">Fallback baseline</text>
<rect x="1170" y="74" width="18" height="18" fill="#3A7D44" rx="4" ry="4" />
<text x="1198" y="89" font-family="Arial" font-size="16" font-weight="400" fill="#33434D" text-anchor="start">Calibrated ML</text>
<line x1="110" y1="710.0" x2="1330" y2="710.0" stroke="#D6D1C7" stroke-width="1" />
<text x="94" y="716.0" font-family="Arial" font-size="15" font-weight="400" fill="#54636C" text-anchor="end">0</text>
<line x1="110" y1="602.0" x2="1330" y2="602.0" stroke="#D6D1C7" stroke-width="1" />
<text x="94" y="608.0" font-family="Arial" font-size="15" font-weight="400" fill="#54636C" text-anchor="end">3,834</text>
<line x1="110" y1="494.0" x2="1330" y2="494.0" stroke="#D6D1C7" stroke-width="1" />
<text x="94" y="500.0" font-family="Arial" font-size="15" font-weight="400" fill="#54636C" text-anchor="end">7,668</text>
<line x1="110" y1="386.0" x2="1330" y2="386.0" stroke="#D6D1C7" stroke-width="1" />
<text x="94" y="392.0" font-family="Arial" font-size="15" font-weight="400" fill="#54636C" text-anchor="end">11,502</text>
<line x1="110" y1="278.0" x2="1330" y2="278.0" stroke="#D6D1C7" stroke-width="1" />
<text x="94" y="284.0" font-family="Arial" font-size="15" font-weight="400" fill="#54636C" text-anchor="end">15,336</text>
<line x1="110" y1="170.0" x2="1330" y2="170.0" stroke="#D6D1C7" stroke-width="1" />
<text x="94" y="176.0" font-family="Arial" font-size="15" font-weight="400" fill="#54636C" text-anchor="end">19,170</text>
<line x1="110" y1="170" x2="110" y2="710" stroke="#7B7F82" stroke-width="2" />
<line x1="110" y1="710" x2="1330" y2="710" stroke="#7B7F82" stroke-width="2" />
<text x="48" y="442" font-family="Arial" font-size="16" font-weight="400" fill="#54636C" text-anchor="start">Makespan (s)</text>
<text x="156.9230769230769" y="744" font-family="Arial" font-size="14" font-weight="700" fill="#182026" text-anchor="middle">BASE_CASE</text>
<rect x="128.39999999999998" y="266.056338028169" width="22.52307692307692" height="443.943661971831" fill="#0F4C5C" rx="6" ry="6" />
<rect x="162.9230769230769" y="277.943661971831" width="22.52307692307692" height="432.056338028169" fill="#3A7D44" rx="6" ry="6" />
<text x="250.76923076923077" y="744" font-family="Arial" font-size="14" font-weight="700" fill="#182026" text-anchor="middle">FLEET_1</text>
<rect x="222.24615384615385" y="266.056338028169" width="22.52307692307692" height="443.943661971831" fill="#0F4C5C" rx="6" ry="6" />
<rect x="256.7692307692308" y="277.943661971831" width="22.52307692307692" height="432.056338028169" fill="#3A7D44" rx="6" ry="6" />
<text x="344.6153846153846" y="744" font-family="Arial" font-size="14" font-weight="700" fill="#182026" text-anchor="middle">FLEET_2</text>
<rect x="316.09230769230766" y="266.056338028169" width="22.52307692307692" height="443.943661971831" fill="#0F4C5C" rx="6" ry="6" />
<rect x="350.6153846153846" y="277.943661971831" width="22.52307692307692" height="432.056338028169" fill="#3A7D44" rx="6" ry="6" />
<text x="438.46153846153845" y="744" font-family="Arial" font-size="14" font-weight="700" fill="#182026" text-anchor="middle">FLEET_3</text>
<rect x="409.9384615384615" y="266.056338028169" width="22.52307692307692" height="443.943661971831" fill="#0F4C5C" rx="6" ry="6" />
<rect x="444.46153846153845" y="277.943661971831" width="22.52307692307692" height="432.056338028169" fill="#3A7D44" rx="6" ry="6" />
<text x="532.3076923076923" y="744" font-family="Arial" font-size="14" font-weight="700" fill="#182026" text-anchor="middle">CAPACITY_8</text>
<rect x="503.78461538461534" y="323.07042253521126" width="22.52307692307692" height="386.92957746478874" fill="#0F4C5C" rx="6" ry="6" />
<rect x="538.3076923076923" y="332.3661971830986" width="22.52307692307692" height="377.6338028169014" fill="#3A7D44" rx="6" ry="6" />
<text x="626.1538461538461" y="744" font-family="Arial" font-size="14" font-weight="700" fill="#182026" text-anchor="middle">CAPACITY_20</text>
<rect x="597.6307692307691" y="266.056338028169" width="22.52307692307692" height="443.943661971831" fill="#0F4C5C" rx="6" ry="6" />
<rect x="632.1538461538461" y="277.943661971831" width="22.52307692307692" height="432.056338028169" fill="#3A7D44" rx="6" ry="6" />
<text x="720.0" y="744" font-family="Arial" font-size="14" font-weight="700" fill="#182026" text-anchor="middle">CAPACITY_30</text>
<rect x="691.4769230769231" y="266.056338028169" width="22.52307692307692" height="443.943661971831" fill="#0F4C5C" rx="6" ry="6" />
<rect x="726.0" y="277.943661971831" width="22.52307692307692" height="432.056338028169" fill="#3A7D44" rx="6" ry="6" />
<text x="813.8461538461538" y="744" font-family="Arial" font-size="14" font-weight="700" fill="#182026" text-anchor="middle">WORKDAY_0800_1800</text>
<rect x="785.3230769230769" y="266.056338028169" width="22.52307692307692" height="443.943661971831" fill="#0F4C5C" rx="6" ry="6" />
<rect x="819.8461538461538" y="277.943661971831" width="22.52307692307692" height="432.056338028169" fill="#3A7D44" rx="6" ry="6" />
<text x="907.6923076923076" y="744" font-family="Arial" font-size="14" font-weight="700" fill="#182026" text-anchor="middle">WORKDAY_0900_1700</text>
<rect x="879.1692307692307" y="367.46478873239437" width="22.52307692307692" height="342.53521126760563" fill="#0F4C5C" rx="6" ry="6" />
<rect x="913.6923076923076" y="379.3521126760563" width="22.52307692307692" height="330.6478873239437" fill="#3A7D44" rx="6" ry="6" />
<text x="1001.5384615384614" y="744" font-family="Arial" font-size="14" font-weight="700" fill="#182026" text-anchor="middle">SERVICE_1_0X</text>
<rect x="973.0153846153845" y="266.056338028169" width="22.52307692307692" height="443.943661971831" fill="#0F4C5C" rx="6" ry="6" />
<rect x="1007.5384615384614" y="277.943661971831" width="22.52307692307692" height="432.056338028169" fill="#3A7D44" rx="6" ry="6" />
<text x="1095.3846153846152" y="744" font-family="Arial" font-size="14" font-weight="700" fill="#182026" text-anchor="middle">SERVICE_1_2X</text>
<rect x="1066.8615384615384" y="252.53521126760563" width="22.52307692307692" height="457.46478873239437" fill="#0F4C5C" rx="6" ry="6" />
<rect x="1101.3846153846152" y="264.4225352112676" width="22.52307692307692" height="445.5774647887324" fill="#3A7D44" rx="6" ry="6" />
<text x="1189.230769230769" y="744" font-family="Arial" font-size="14" font-weight="700" fill="#182026" text-anchor="middle">TW_ORIGINAL</text>
<rect x="1160.7076923076922" y="266.056338028169" width="22.52307692307692" height="443.943661971831" fill="#0F4C5C" rx="6" ry="6" />
<rect x="1195.230769230769" y="277.943661971831" width="22.52307692307692" height="432.056338028169" fill="#3A7D44" rx="6" ry="6" />
<text x="1283.076923076923" y="744" font-family="Arial" font-size="14" font-weight="700" fill="#182026" text-anchor="middle">TW_TIGHTER</text>
<rect x="1254.5538461538463" y="233.94366197183098" width="22.52307692307692" height="476.056338028169" fill="#0F4C5C" rx="6" ry="6" />
<rect x="1289.076923076923" y="170.0" width="22.52307692307692" height="540.0" fill="#3A7D44" rx="6" ry="6" />
</svg>