<svg xmlns="http://www.w3.org/2000/svg" width="1440" height="860" viewBox="0 0 1440 860">
<title>Sensitivity Analysis Distance by Scenario</title>
<rect x="0" y="0" width="1440" height="860" fill="#F6F1E8" rx="0" ry="0" />
<text x="80" y="70" font-family="Georgia" font-size="34" font-weight="700" fill="#182026" text-anchor="start">Sensitivity Analysis Distance by Scenario</text>
<text x="80" y="104" font-family="Arial" font-size="18" font-weight="400" fill="#41505A" text-anchor="start">Total distance by scenario for fallback baseline and calibrated ML travel-time sources.</text>
<line x1="80" y1="124" x2="1360" y2="124" stroke="#BDB6A8" stroke-width="2" />
<rect x="970" y="74" width="18" height="18" fill="#0F4C5C" rx="4" ry="4" />
<text x="998" y="89" font-family="Arial" font-size="16" font-weight="400" fill="#33434D" text-anchor="start">Fallback baseline</text>
<rect x="1170" y="74" width="18" height="18" fill="#3A7D44" rx="4" ry="4" />
<text x="1198" y="89" font-family="Arial" font-size="16" font-weight="400" fill="#33434D" text-anchor="start">Calibrated ML</text>
<line x1="110" y1="710.0" x2="1330" y2="710.0" stroke="#D6D1C7" stroke-width="1" />
<text x="94" y="716.0" font-family="Arial" font-size="15" font-weight="400" fill="#54636C" text-anchor="end">0</text>
<line x1="110" y1="602.0" x2="1330" y2="602.0" stroke="#D6D1C7" stroke-width="1" />
<text x="94" y="608.0" font-family="Arial" font-size="15" font-weight="400" fill="#54636C" text-anchor="end">4,326</text>
<line x1="110" y1="494.0" x2="1330" y2="494.0" stroke="#D6D1C7" stroke-width="1" />
<text x="94" y="500.0" font-family="Arial" font-size="15" font-weight="400" fill="#54636C" text-anchor="end">8,652</text>
<line x1="110" y1="386.0" x2="1330" y2="386.0" stroke="#D6D1C7" stroke-width="1" />
<text x="94" y="392.0" font-family="Arial" font-size="15" font-weight="400" fill="#54636C" text-anchor="end">12,978</text>
<line x1="110" y1="278.0" x2="1330" y2="278.0" stroke="#D6D1C7" stroke-width="1" />
<text x="94" y="284.0" font-family="Arial" font-size="15" font-weight="400" fill="#54636C" text-anchor="end">17,304</text>
<line x1="110" y1="170.0" x2="1330" y2="170.0" stroke="#D6D1C7" stroke-width="1" />
<text x="94" y="176.0" font-family="Arial" font-size="15" font-weight="400" fill="#54636C" text-anchor="end">21,630</text>
<line x1="110" y1="170" x2="110" y2="710" stroke="#7B7F82" stroke-width="2" />
<line x1="110" y1="710" x2="1330" y2="710" stroke="#7B7F82" stroke-width="2" />
<text x="48" y="442" font-family="Arial" font-size="16" font-weight="400" fill="#54636C" text-anchor="start">Distance (m)</text>
<text x="156.9230769230769" y="744" font-family="Arial" font-size="14" font-weight="700" fill="#182026" text-anchor="middle">BASE_CASE</text>
<rect x="128.39999999999998" y="251.64660194174763" width="22.52307692307692" height="458.35339805825237" fill="#0F4C5C" rx="6" ry="6" />
<rect x="162.9230769230769" y="251.64660194174763" width="22.52307692307692" height="458.35339805825237" fill="#3A7D44" rx="6" ry="6" />
<text x="250.76923076923077" y="744" font-family="Arial" font-size="14" font-weight="700" fill="#182026" text-anchor="middle">FLEET_1</text>
<rect x="222.24615384615385" y="251.64660194174763" width="22.52307692307692" height="458.35339805825237" fill="#0F4C5C" rx="6" ry="6" />
<rect x="256.7692307692308" y="251.64660194174763" width="22.52307692307692" height="458.35339805825237" fill="#3A7D44" rx="6" ry="6" />
<text x="344.6153846153846" y="744" font-family="Arial" font-size="14" font-weight="700" fill="#182026" text-anchor="middle">FLEET_2</text>
<rect x="316.09230769230766" y="251.64660194174763" width="22.52307692307692" height="458.35339805825237" fill="#0F4C5C" rx="6" ry="6" />
<rect x="350.6153846153846" y="251.64660194174763" width="22.52307692307692" height="458.35339805825237" fill="#3A7D44" rx="6" ry="6" />
<text x="438.46153846153845" y="744" font-family="Arial" font-size="14" font-weight="700" fill="#182026" text-anchor="middle">FLEET_3</text>
<rect x="409.9384615384615" y="251.64660194174763" width="22.52307692307692" height="458.35339805825237" fill="#0F4C5C" rx="6" ry="6" />
<rect x="444.46153846153845" y="251.64660194174763" width="22.52307692307692" height="458.35339805825237" fill="#3A7D44" rx="6" ry="6" />
<text x="532.3076923076923" y="744" font-family="Arial" font-size="14" font-weight="700" fill="#182026" text-anchor="middle">CAPACITY_8</text>
<rect x="503.78461538461534" y="174.47877947295422" width="22.52307692307692" height="535.5212205270458" fill="#0F4C5C" rx="6" ry="6" />
<rect x="538.3076923076923" y="170.1098474341194" width="22.52307692307692" height="539.8901525658806" fill="#3A7D44" rx="6" ry="6" />
<text x="626.1538461538461" y="744" font-family="Arial" font-size="14" font-weight="700" fill="#182026" text-anchor="middle">CAPACITY_20</text>
<rect x="597.6307692307691" y="251.64660194174763" width="22.52307692307692" height="458.35339805825237" fill="#0F4C5C" rx="6" ry="6" />
<rect x="632.1538461538461" y="251.64660194174763" width="22.52307692307692" height="458.35339805825237" fill="#3A7D44" rx="6" ry="6" />
<text x="720.0" y="744" font-family="Arial" font-size="14" font-weight="700" fill="#182026" text-anchor="middle">CAPACITY_30</text>
<rect x="691.4769230769231" y="251.64660194174763" width="22.52307692307692" height="458.35339805825237" fill="#0F4C5C" rx="6" ry="6" />
<rect x="726.0" y="251.64660194174763" width="22.52307692307692" height="458.35339805825237" fill="#3A7D44" rx="6" ry="6" />
<text x="813.8461538461538" y="744" font-family="Arial" font-size="14" font-weight="700" fill="#182026" text-anchor="middle">WORKDAY_0800_1800</text>
<rect x="785.3230769230769" y="251.64660194174763" width="22.52307692307692" height="458.35339805825237" fill="#0F4C5C" rx="6" ry="6" />
<rect x="819.8461538461538" y="251.64660194174763" width="22.52307692307692" height="458.35339805825237" fill="#3A7D44" rx="6" ry="6" />
<text x="907.6923076923076" y="744" font-family="Arial" font-size="14" font-weight="700" fill="#182026" text-anchor="middle">WORKDAY_0900_1700</text>
<rect x="879.1692307692307" y="251.64660194174763" width="22.52307692307692" height="458.35339805825237" fill="#0F4C5C" rx="6" ry="6" />
<rect x="913.6923076923076" y="251.64660194174763" width="22.52307692307692" height="458.35339805825237" fill="#3A7D44" rx="6" ry="6" />
<text x="1001.5384615384614" y="744" font-family="Arial" font-size="14" font-weight="700" fill="#182026" text-anchor="middle">SERVICE_1_0X</text>
<rect x="973.0153846153845" y="251.64660194174763" width="22.52307692307692" height="458.35339805825237" fill="#0F4C5C" rx="6" ry="6" />
<rect x="1007.5384615384614" y="251.64660194174763" width="22.52307692307692" height="458.35339805825237" fill="#3A7D44" rx="6" ry="6" />
<text x="1095.3846153846152" y="744" font-family="Arial" font-size="14" font-weight="700" fill="#182026" text-anchor="middle">SERVICE_1_2X</text>
<rect x="1066.8615384615384" y="251.64660194174763" width="22.52307692307692" height="458.35339805825237" fill="#0F4C5C" rx="6" ry="6" />
<rect x="1101.3846153846152" y="251.64660194174763" width="22.52307692307692" height="458.35339805825237" fill="#3A7D44" rx="6" ry="6" />
<text x="1189.230769230769" y="744" font-family="Arial" font-size="14" font-weight="700" fill="#182026" text-anchor="middle">TW_ORIGINAL</text>
<rect x="1160.7076923076922" y="251.64660194174763" width="22.52307692307692" height="458.35339805825237" fill="#0F4C5C" rx="6" ry="6" />
<rect x="1195.230769230769" y="251.64660194174763" width="22.52307692307692" height="458.35339805825237" fill="#3A7D44" rx="6" ry="6" />
<text x="1283.076923076923" y="744" font-family="Arial" font-size="14" font-weight="700" fill="#182026" text-anchor="middle">TW_TIGHTER</text>
<rect x="1254.5538461538463" y="224.75894590846048" width="22.52307692307692" height="485.2410540915395" fill="#0F4C5C" rx="6" ry="6" />
<rect x="1289.076923076923" y="202.29015256588076" width="22.52307692307692" height="507.70984743411924" fill="#3A7D44" rx="6" ry="6" />
</svg>